<svg viewBox="0 0 151 59" xmlns="http://www.w3.org/2000/svg"><g fill="none"><path d="m67.242 12.148v12.852h2.826v-5.31h5.382v-2.196h-5.382v-2.97h6.21v-2.376zm12.672 8.208c0-.3720019.0359996-.7379982.108-1.098s.1949991-.6779986.369-.954.4049986-.5009991.693-.675.6479978-.261 1.08-.261.7949985.0869991 1.089.261.5279991.3989986.702.675.2969996.5939982.369.954.108.7259981.108 1.098-.0359996.7349982-.108 1.089-.1949991.6719986-.369.954-.4079985.5069992-.702.675-.6569978.252-1.089.252-.7919986-.0839992-1.08-.252-.5189991-.3929986-.693-.675-.2969996-.5999982-.369-.954-.108-.7169981-.108-1.089zm-2.556 0c0 .7440037.1139989 1.415997.342 2.016s.5519979 1.1129979.972 1.539.9239971.7529989 1.512.981 1.2479963.342 1.98.342 1.394997-.1139989 1.989-.342 1.1009979-.5549979 1.521-.981.7439989-.938997.972-1.539.342-1.2719963.342-2.016-.1139989-1.418997-.342-2.025-.5519979-1.1219979-.972-1.548-.926997-.7559988-1.521-.99-1.2569963-.351-1.989-.351-1.3919971.1169988-1.98.351-1.0919979.5639979-1.512.99-.7439989.941997-.972 1.548-.342 1.2809963-.342 2.025zm11.286-4.662v9.306h2.556v-4.194c0-.4200021.0419996-.8099982.126-1.17s.224999-.6749987.423-.945.4589984-.4829992.783-.639.7199977-.234 1.188-.234c.1560008 0 .3179992.0089999.486.027s.3119994.0389999.432.063v-2.376c-.204001-.0600003-.3899992-.09-.558-.09-.3240016 0-.6359985.0479995-.936.144s-.5819987.2309991-.846.405-.497999.3839988-.702.63-.3659994.5129986-.486.801h-.036v-1.728zm13.014 3.276h2.502c-.036-.600003-.179999-1.1189978-.432-1.557s-.578998-.8039985-.981-1.098-.857997-.5129993-1.368-.657-1.040997-.216-1.593-.216c-.7560038 0-1.4279971.1259987-2.016.378s-1.085998.6029978-1.494 1.053c-.408002.4500023-.7169989.9839969-.927 1.602-.210001.6180031-.315 1.2869964-.315 2.007 0 .6960035.1139989 1.3349971.342 1.917s.545998 1.0829979.954 1.503.9029971.7469988 1.485.981 1.2209965.351 1.917.351c1.236006 0 2.249996-.3239968 3.042-.972s1.271999-1.5899938 1.44-2.826h-2.466c-.084.5760029-.290998 1.0349983-.621 1.377s-.800997.513-1.413.513c-.396002 0-.7319986-.0899991-1.008-.27s-.4949992-.4109986-.657-.693-.2789996-.5969983-.351-.945-.108-.6899983-.108-1.026c0-.3480017.0359996-.6989982.108-1.053s.1949991-.6779985.369-.972.3989986-.5339991.675-.72.617998-.279 1.026-.279c1.092005 0 1.721999.5339947 1.89 1.602zm10.26.378h-4.158c.012-.1800009.051-.3839989.117-.612s.179999-.443999.342-.648.377999-.3749993.648-.513.608998-.207 1.017-.207c.624003 0 1.088998.1679983 1.395.504s.518999.8279968.639 1.476zm-4.158 1.62h6.714c.048-.7200036-.011999-1.4099967-.18-2.07s-.440998-1.2479974-.819-1.764-.860997-.9269985-1.449-1.233-1.277996-.459-2.07-.459c-.708004 0-1.352997.1259987-1.935.378s-1.082998.5969978-1.503 1.035-.743999.956997-.972 1.557-.342 1.2479965-.342 1.944c0 .7200036.110999 1.379997.333 1.98s.536998 1.1159978.945 1.548.905997.7649988 1.494.999 1.247996.351 1.98.351c1.056005 0 1.955996-.2399976 2.7-.72s1.295998-1.2779944 1.656-2.394h-2.25c-.084.2880014-.311998.5609987-.684.819s-.815997.387-1.332.387c-.720004 0-1.271998-.1859981-1.656-.558s-.594-.9719959-.63-1.8zm-31.95 19.1h2.736c-.0840004-.7440037-.2879984-1.4039971-.612-1.98s-.7349975-1.058998-1.233-1.449-1.0619968-.686999-1.692-.891-1.2989965-.306-2.007-.306c-.9840049 0-1.8689961.1739983-2.655.522s-1.4489973.8279969-1.989 1.44-.9539986 1.3289959-1.242 2.151-.432 1.7129952-.432 2.673c0 .9360047.1439986 1.808996.432 2.619s.7019973 1.514997 1.242 2.115 1.2029961 1.0709983 1.989 1.413 1.6709951.513 2.655.513c.792004 0 1.5179967-.1199988 2.178-.36s1.2359975-.5879977 1.728-1.044.8879985-1.0079968 1.188-1.656.4859996-1.373996.558-2.178h-2.736c-.1080005.8640043-.4049976 1.5599974-.891 2.088s-1.1609957.792-2.025.792c-.6360032 0-1.1759978-.1229988-1.62-.369s-.8039986-.572998-1.08-.981-.4769994-.8669974-.603-1.377c-.1260006-.5100025-.189-1.0349973-.189-1.575 0-.5640028.0629994-1.1099974.189-1.638s.3269986-.9989979.603-1.413.6359978-.7439988 1.08-.99.9839968-.369 1.62-.369c.3480017 0 .6809984.0569994.999.171s.6029987.272999.855.477.4619992.4409986.63.711.2759998.5669984.324.891zm7.038 2.16c0-.5640028.0629994-1.1099974.189-1.638s.3269986-.9989979.603-1.413.6359978-.7439988 1.08-.99.9839968-.369 1.62-.369 1.1759978.1229988 1.62.369.8039986.5759979 1.08.99.4769994.8849974.603 1.413.189 1.0739972.189 1.638c0 .5400027-.0629994 1.0649975-.189 1.575-.1260006.5100026-.3269986.968998-.603 1.377s-.6359978.7349988-1.08.981-.9839968.369-1.62.369-1.1759978-.1229988-1.62-.369-.8039986-.572998-1.08-.981-.4769994-.8669974-.603-1.377c-.1260006-.5100025-.189-1.0349973-.189-1.575zm-2.826 0c0 .9360047.1439986 1.808996.432 2.619s.7019973 1.514997 1.242 2.115 1.2029961 1.0709983 1.989 1.413 1.6709951.513 2.655.513c.996005 0 1.8839961-.1709983 2.664-.513s1.4399973-.812997 1.98-1.413.9539986-1.304996 1.242-2.115.432-1.6829953.432-2.619c0-.9600048-.1439986-1.8509959-.432-2.673s-.7019973-1.5389969-1.242-2.151-1.1999961-1.0919983-1.98-1.44-1.667995-.522-2.664-.522c-.9840049 0-1.8689961.1739983-2.655.522s-1.4489973.8279969-1.989 1.44-.9539986 1.3289959-1.242 2.151-.432 1.7129952-.432 2.673zm20.538 6.372 4.266-12.852h-2.916l-2.898 9.036h-.036l-2.862-9.036h-2.898l4.158 12.852zm5.364-12.852v12.852h2.826v-12.852zm8.136 10.476v-8.1h2.016c.696003 0 1.280998.098999 1.755.297s.854999.4829981 1.143.855.494999.8189974.621 1.341.189 1.1069968.189 1.755c0 .7080035-.089999 1.3079975-.27 1.8s-.419998.8909985-.72 1.197c-.300001.3060015-.641998.5249993-1.026.657s-.779998.198-1.188.198zm-2.826-10.476v12.852h5.544c.984005 0 1.838996-.1649983 2.565-.495.726004-.3300016 1.331998-.7829971 1.818-1.359s.848999-1.259996 1.089-2.052.36-1.6559953.36-2.592c0-1.0680053-.146999-1.997996-.441-2.79s-.701997-1.4519974-1.224-1.98-1.139996-.9239987-1.854-1.188-1.484996-.396-2.313-.396zm13.05 6.84v2.196h5.418v-2.196zm13.428 6.012v-12.6h-2.034c-.072.4800024-.221999.8819984-.45 1.206s-.506998.584999-.837.783-.701998.3359996-1.116.414-.842998.1110001-1.287.099v1.926h3.168v8.172zm7.74-12.852c.960005 0 1.748997.1889981 2.367.567s1.112998.8759969 1.485 1.494.629999 1.3169961.774 2.097.216 1.565996.216 2.358c0 .7800039-.089999 1.5599961-.27 2.34s-.467998 1.4849969-.864 2.115c-.396002.6300032-.905997 1.1399981-1.53 1.53-.624003.390002-1.385995.585-2.286.585-.540003 0-1.043998-.0749993-1.512-.225s-.881998-.3749985-1.242-.675-.653999-.6659978-.882-1.098-.378-.9239972-.45-1.476h2.43c.084.4200021.275999.7859984.576 1.098.300002.3120016.671998.468 1.116.468.468002 0 .851999-.1349986 1.152-.405s.539999-.599998.72-.99c.180001-.3900019.309-.8069978.387-1.251s.129-.8399983.153-1.188l-.036-.036c-.348002.5040025-.755998.8639989-1.224 1.08s-1.007997.324-1.62.324c-.540003 0-1.067997-.1169988-1.584-.351s-.953998-.548998-1.314-.945c-.336002-.3840019-.581999-.8219975-.738-1.314s-.234-.9899975-.234-1.494c0-.6480032.104999-1.2509972.315-1.809s.509998-1.0439979.9-1.458.854997-.7409988 1.395-.981 1.139997-.36 1.8-.36zm.072 2.106c-.300002 0-.569999.0659993-.81.198s-.443999.3059989-.612.522-.294.4619986-.378.738-.126.5579986-.126.846c0 .3000015.039.5909986.117.873s.194999.5339989.351.756.356999.4019993.603.54.530998.207.855.207c.348002 0 .647999-.0629994.9-.189s.461999-.2969989.63-.513.294-.4649986.378-.747.126-.5789984.126-.891c0-.2880014-.045-.5729986-.135-.855s-.221999-.5339989-.396-.756-.386999-.3989993-.639-.531-.539998-.198-.864-.198z" fill="#000"/><path d="m58.9840861 27.0777805c.2118627 2.7396129-1.7164473 5.171767-4.3054819 5.4313723-1.9821735.198592-3.7752266-.9343396-4.6035261-2.7037228l-2.3496417.2069664-1.7739016.8553813c-.4057711.195003-.678679.5826164-.7409212 1.0276539-.167575 1.1999266-.471604 2.3555886-.8941326 3.4538264-.1436357.372061-.1184995.7871901.0766058 1.134128l.6319973 1.1293426 1.7571441 1.1783925c.9264507-.3541159 2.0049159-.269176 2.8918667.3254038 1.5033876 1.0085125 1.863674 3.0841581.745709 4.5448862-.9623596 1.2585471-2.7518218 1.6042886-4.1139676.7955645-.8677994-.5144252-1.3920699-1.3686102-1.5201451-2.2814157l-1.9474615-1.3052042-1.2256919-.1495422c-.4213315-.0514425-.8402692.0933143-1.1466921.386417-1.0341775.9845858-2.202415 1.8303964-3.4723945 2.5075234-.4273164.2273042-.7014213.6639674-.7313454 1.1460914l-.1556054 2.481204.7708452 3.0566424c1.3118733.3660792 2.3963233 1.4056965 2.7530187 2.8197675.5386341 2.1378551-.7899966 4.306815-2.9565027 4.7889391-1.9546433.4354668-3.9595591-.7034465-4.5807838-2.6068195-.4835737-1.4858512-.0394998-3.0219486.982708-4.0256757l-.7744361-3.0745875-1.1957677-1.921318c-.3207866-.5156215-.8881478-.8206875-1.4962059-.8194912-.0035909 0-.0059848 0-.0095757 0-1.0473441 0-2.0719458-.1040814-3.0630326-.2990844-.5901036-.1172411-1.1993586.0693876-1.6135083.5060508l-1.5799934 1.6664982-1.7691138 3.6679708c.4141498.8410252.4512557 1.8567158.0131666 2.7671287-.7876027 1.6318043-2.7961094 2.2802193-4.4012391 1.3781808-1.3741154-.7740304-1.9690068-2.4824004-1.3705245-3.9419321.4081649-.9953529 1.254419-1.6605165 2.2119907-1.8830353l1.7798865-3.6918976.3495136-2.477615c.0634392-.4570009-.1113177-.9175908-.4704071-1.2071045-1.4160092-1.148484-2.6297314-2.5350392-3.5789243-4.0998487-.2358021-.3888097-.6595276-.6244882-1.1143741-.6280772l-2.475323-.0239267-2.70992799.8517923c-.19031738 1.6844432-1.34419132 3.1810614-3.06542652 3.721806-2.31253574.7273732-4.77588903-.5431372-5.52638588-2.8401053-.75049684-2.2957717.51708874-4.8068841 2.81167001-5.5653621 1.60632659-.5311739 3.29404677-.0897253 4.43595107.9953528l2.87630611-.9044312 2.100673-1.4966182c.3124078-.2213224.4787858-.5921871.4476648-.9726224-.034712-.4223071-.0526665-.8482033-.0526665-1.2788848 0-2.3400362.5146948-4.5616349 1.4339637-6.5595186.13406-.2931027.1304691-.6304699-.0107727-.9199835l-.6224216-1.2717068-1.6889172-1.2740995c-.9456021.3026734-2.0168854.1579166-2.8691243-.4845167-1.4459333-1.0910598-1.69011409-3.1834541-.49314942-4.57958 1.03058662-1.2023192 2.83680622-1.4487647 4.15227042-.5658676.8378753.5622786 1.3142672 1.442783 1.390873 2.3615702l1.8720527 1.4116783 1.8864163.3361708c1.3729185-1.2740994 2.9732603-2.3065387 4.7316014-3.0303229l.4428769-2.6893667-.5589825-2.77789574c-1.6542052-.42589616-2.9971995-1.69281759-3.3586829-3.38204616-.5099069-2.38669334 1.1311316-4.71117714 3.6663028-5.19090848 2.5339742-.47973135 5.0021154 1.06474039 5.5120223 3.45143373.3818317 1.78613191-.440483 3.5363737-1.9414767 4.50540709l.5278614 2.61997916 1.2963128 2.0672712c.0849845.1351862.2334081.2165371.3926044.2165371h.0023939c2.9684724 0 5.7478244.8254729 8.1214053 2.2586852.1304691.077762.2908624.088529.4285134.0239268l2.030052-.9403213 2.3699901-2.5625549c-.1424388-.9187873.1196964-1.892606.8007693-2.6283536 1.2304797-1.32913095 3.3371375-1.3626284 4.608314-.0334974 1.1143741 1.1664291 1.1574649 3.0267339.0993481 4.2446055-.6846638.7883864-1.6673718 1.152073-2.6273375 1.0802928l-2.36999 2.5625549-.7696483 2.0696639c-.0538634.1435605-.0299241.3038698.0598482.4282889.9348294 1.2824738 1.6805384 2.7109008 2.1952332 4.2446055.1424388.4211108.4775889.7489073.9061023.8697373l1.9271131.5395483 2.5040501-.2213225c.6140429-1.7693832 2.1473546-3.1080848 4.03018-3.2971062 2.5890346-.2596052 4.8596766 1.7514381 5.0703424 4.4910511z" fill="#eb5569"/><circle cx="29.5" cy="30.5" fill="#f58a97" r="11.5"/><path d="m21.4382813 30.5c0-5.7555425 4.1477992-10.5240566 9.5617187-11.3680425-.5605353-.087382-1.1354136-.1319575-1.7198925-.1319575-6.2299691 0-11.2801075 5.1485849-11.2801075 11.5s5.0501384 11.5 11.2801075 11.5c.5844789 0 1.1585475-.045283 1.7190828-.1326651-5.4138038-.8441038-9.560909-5.6117924-9.560909-11.3673349z" fill="#f07281"/><g fill="#eb5569"><ellipse cx="9.389065" cy="5.396863" rx="3.318094" ry="3.317774"/><ellipse cx="8.481969" cy="49.130173" rx="2.191631" ry="2.19142"/><ellipse cx="48.721813" cy="52.730013" rx="3.228125" ry="3.227814"/><ellipse cx="25.417257" cy="26.682301" rx="3.009595" ry="3.009305"/><ellipse cx="27.833153" cy="36.029438" rx="2.048494" ry="2.048296"/><ellipse cx="34.265507" cy="29.895301" rx="1.720161" ry="1.719996"/></g><g fill="#000"><path d="m59.9817369 26.7911825c-.1251177-1.6129355-.8593892-3.0542138-2.0672605-4.058427-1.1307373-.9400055-2.5516565-1.3781426-4.0013659-1.2337646-1.9771709.1969115-3.7186216 1.4813038-4.5770511 3.3303426l-1.7968719.1576007-1.7734799-.4936488c-.1378333-.0383578-.2490357-.1467605-.2974993-.2899472-.5153456-1.5225206-1.2509367-2.9602251-2.1881795-4.2771382l.6276276-1.6757137 1.9808897-2.1275502c1.1266587-.037524 2.1743841-.5306963 2.9256899-1.3906506 1.3594999-1.5561135 1.302999-3.9408519-.1288364-5.42906485-.7858541-.81671242-1.8443759-1.26437946-2.9765527-1.25234796-1.1179017.0090534-2.1940576.48149819-2.9526808 1.29642375-.7431486.79812916-1.1236598 1.83915156-1.0763958 2.91078876l-1.9811296 2.1279075-1.6599982.7646554c-2.4759621-1.437228-5.2875707-2.2145105-8.1634775-2.2559656l-1.0853927-1.7189557-.3827904-1.88894523c1.5250439-1.23829136 2.2376028-3.1616634 1.8301007-5.05644574-.6115531-2.84336474-3.5600353-4.69550078-6.572096-4.12811437-1.5165268.2854205-2.8068102 1.12286045-3.6332105 2.35769723-.7740981 1.15681072-1.0414876 2.53304738-.7527453 3.87509553.3848298 1.78935782 1.6910678 3.23278028 3.4681464 3.87676328l.4228569 2.0868098-.3363662 2.034038c-1.5321215.680554-2.9451233 1.5827972-4.2110549 2.688623l-1.244219-.2201407-1.4059242-1.0532922c-.200932-1.0603205-.8172835-1.9937741-1.7330536-2.603926-1.7090616-1.138823-4.0072439-.8273144-5.34575093.7245107-.73990961.8579292-1.08011448 1.9468394-.95787585 3.0658879.1205592 1.1035624.70140264 2.1198071 1.59354074 2.7882104.92248784.6910369 2.09569084.9546577 3.21863084.7403541l1.1781213.8825879.5284212 1.0737814c.023392.0475304.0239918.1023273.0017994.1502151-1.007779 2.1760335-1.5186861 4.4991848-1.5186861 6.905008 0 .4452846.0185937.8979549.0551813 1.3453837.0056381.0690917-.0218326.1322273-.0736551.1687983l-1.9895267 1.4076853-2.27083154.709382c-1.39428817-1.0712799-3.23794427-1.39482-4.93489001-.8379165-.03394852.0111976-.06741719.0232291-.10076591.0354989l-.0280705.0102446c-.4674818.1672498-.70991976.6791245-.54161671 1.1433498.16830304.4641061.68352869.7050934 1.15137037.5378437l.04210575-.0152479c.01415521-.0051223.02831042-.0104828.04234567-.0151287 1.23930062-.4069267 2.59724108-.1042332 3.54408067.7897905.16974256.1602214.39250717.2458714.61995021.2458714.09020947 0 .18125866-.013461.26990866-.0412168l2.88238454-.9004564c.0900896-.0281132.1751408-.0701639.2521547-.1246035l2.1055275-1.4897616c.564529-.3993028.8799022-1.077236.8230415-1.7692259-.032629-.3994219-.0493033-.8032514-.0493033-1.20041 0-2.1462526.4556058-4.218291 1.3542217-6.1584595.2486758-.537129.2414783-1.1499016-.0199133-1.6811935l-.6230691-1.2660472c-.062139-.1263903-.1534281-.2362224-.2664299-.3209194l-1.6937068-1.2689061c-.233441-.1748737-.5380179-.226216-.8162038-.1375879-.7024823.2234761-1.4720219.094346-2.0587433-.3452207-.5046692-.3779796-.82004251-.9301182-.88829941-1.5545649-.06813694-.6237319.12211868-1.231263.53561871-1.7107361.732952-.8497097 2.0403896-1.0268467 2.9765528-.4031148.5771247.3846506.9413214.9986144.9992618 1.6847672.0213528.2532571.1503091.4855484.35472.6386224l1.8759251 1.405422c.1130018.084697.2445973.1416381.3839901.1662967l1.8900804.3344995c.2781859.0493172.5629695-.0340694.7697795-.2246674 1.3167944-1.2133945 2.8218051-2.1709112 4.4735261-2.8459855.2885024-.1179325.4948326-.3757163.5453355-.6813878l.4428901-2.6779019c.017634-.1064966.0155947-.2152566-.005758-.3210385l-.5603304-2.76545777c-.068017-.33580984-.3234106-.60348091-.6574975-.68889263-1.3912892-.35594176-2.4296578-1.38671956-2.709883-2.68981424-.1866568-.86769738-.0119959-1.7601725.4918336-2.51303459.5560118-.83088815 1.433155-1.39601121 2.4697242-1.59113591 2.0600629-.38739043 4.0683033.84399176 4.4772449 2.74568328.2928209 1.36182269-.3172926 2.75497492-1.554434 3.54929207-.310335.19929403-.4664021.5667908-.3934668.92654452l.5286611 2.60881007c.0214727.1057819.062019.2067988.1197195.2982859l1.2995202 2.0585775c.2509551.3975159.682689.6348104 1.1572484.6348104h.0004798c2.7079636 0 5.3617056.7328493 7.6746429 2.1194498.3877088.2324104.8635877.2587367 1.2728892.0704021l2.0341517-.9370274c.1065239-.049079.2023715-.118409.2820245-.2039399l2.3751963-2.5511542c.1864169-.2001279.2705084-.4737551.2285226-.743213-.1066439-.6842468.1028052-1.3673024.5746056-1.8739357.4290948-.4608898 1.0137769-.71748235 1.6462029-.72272379.6300268-.00011912 1.2216666.24336979 1.660838.69997119.7971302.8285056.8281997 2.1566163.070656 3.0235989-.4750392.5436808-1.1624066.8243364-1.8860017.7703733-.2736274-.0206084-.5419766.0843396-.7281536.2844675l-2.3751962 2.5511542c-.079773.0855309-.1417921.1858331-.1826982.2950695l-.7721787 2.0617939c-.1587063.4237231-.0926087.8959297.1765802 1.2631882.8950172 1.2210184 1.5931809 2.5618753 2.0750578 3.9855232.2383594.7043788.8056474 1.2431755 1.5176065 1.4412783l1.9317063.5376054c.1046046.0291854.2136477.0390726.321971.0296619l2.5087111-.2200216c.3529205-.0309722.6546184-.2645738.7708591-.5969291.5194242-1.4858305 1.8067086-2.5406713 3.2794502-2.6873126.9631541-.0960138 1.9105935.197388 2.6668176.826004.8333579.6928238 1.3406663 1.6963222 1.4282366 2.8254962.0578205.7461912-.0779736 1.4954796-.3927471 2.1669801-.209689.4473097-.014635.9787207.4359325 1.1870682.4506875.2082283.9857064.0145331 1.1953955-.4328957.4444496-.9494163.6365046-2.0069969.5550522-3.0586214z"/><path d="m54.8305287 31.5450784c-.2499971.0829381-.5079513.1382302-.766618.1644401-1.5414307.1554642-2.98215-.7046751-3.6718093-2.1919368-.1585492-.3418057-.512583-.5475354-.8853815-.5140251l-2.3315638.2075249c-.1072434.0095744-.2117552.0385369-.3086662.0856908l-1.7599554.8555914c-.6667379.3240931-1.1268275.9643804-1.230508 1.712619-.1543925 1.1133818-.435743 2.2091707-.8360946 3.2567286-.238952.6253274-.1916842 1.3162393.1298084 1.8953702l.6268335 1.1295386c.0684077.1232703.1647249.2285886.2812318.3072182l1.7443974 1.1793255c.2402584.1625253.5441741.1971127.8144797.0929912.6818209-.2629366 1.4497453-.176049 2.0541324.232538.5195901.3512605.8619851.8876656.9638841 1.5102403.1017803.6218567-.0526122 1.2419181-.4350305 1.7457703-.6776642.8930512-1.9600718 1.1429428-2.9200367.5688385-.5916794-.3538934-.9857365-.9497795-1.080866-1.6348271-.035154-.2528836-.1755324-.4787195-.3859812-.6208992l-1.9320437-1.3061861c-.1163881-.0787493-.2496407-.1286558-.3887127-.1456504l-1.2160189-.1490014c-.6801582-.0835366-1.3582974.1451717-1.8600729.6271225-.9738602.9350588-2.067434 1.7315284-3.2501991 2.3671482-.6878778.3695714-1.1458297 1.0907623-1.1949977 1.8818463l-.1542737 2.4826392c-.0057007.0925126.0027315.1855039.0252966.2753834l.7644802 3.057342c.0780276.3122448.3161483.5584263.6237456.6450745 1.0372799.292378 1.8448713 1.1263073 2.1074573 2.1762588.1998788.7994616.0735145 1.6264495-.3560528 2.3284916-.4292111.7016831-1.1064002 1.186985-1.9067471 1.3666245-1.492025.3351036-3.0316743-.5480142-3.5043528-2.0101431-.3570029-1.1045256-.0686452-2.2952206.7523664-3.1076076.2257693-.2233226.3169796-.5506471.2396646-.8597802l-.7692308-3.0760121c-.0224462-.0898795-.0586691-.1758097-.1072433-.2545591l-1.185853-1.9221784c-.4806356-.7792356-1.3179179-1.2441919-2.2490232-1.2441919-.0005939 0-.0011877 0-.0019003 0-.9631714 0-1.9274118-.0949062-2.866118-.2820855-.8947638-.1785623-1.7996224.1093874-2.4205177.7696613l-1.5679149 1.66738c-.0633009.0673797-.1159132.1440945-.1559364.2276311l-1.7550861 3.6695045c-.1188822.2485751-.1176946.5385594.0032066.7860574.3074785.6295161.3110414 1.3517842.0097386 1.981779-.2719683.5685991-.75106.9860425-1.3489152 1.1754957-.5973801.1893336-1.2288453.1219538-1.7780074-.1894532-.9659031-.5477748-1.3930952-1.7867008-.9726726-2.8203759.2804005-.6892364.8533153-1.1811206 1.5719529-1.3496299.262586-.0615155.4834859-.2397188.6005867-.4844641l1.7664874-3.6930815c.0399045-.0835366.0668638-.1728177.0795715-.2646122l.3460767-2.4792882c.1072434-.7679858-.1944158-1.5457852-.7870453-2.03001-1.3349011-1.090882-2.4619661-2.39264-3.3500791-3.8692503-.3890691-.6468697-1.1016497-1.0533025-1.8598355-1.0604833l-2.4560279-.0235769c-.0937044-.0011968-.1865774.0130451-.2757688.0412895l-2.68904175.8524797c-.3362193.1066348-.57849672.4029622-.61792618.7558981-.15463 1.3848158-1.10592515 2.5495403-2.42360551 2.9672231-1.81719939.5761389-3.77750873-.4394645-4.36906942-2.2642235-.23515161-.7253797-.22755075-1.4951607.02220877-2.2261653.16009311-.4687861-.08717237-.9795798-.55236876-1.1409082-.46531516-.1615679-.97207876.0879647-1.13217187.5566311-.3768364 1.1034484-.38764387 2.2680532-.03111602 3.3679112.7237444 2.2323887 2.80341099 3.6629222 5.02666258 3.6628025.52065892 0 1.04963128-.07851 1.57040896-.2436682 1.79926611-.5707533 3.145806-2.0624433 3.5601716-3.8879203l2.036318-.6455533 2.3149369.0221408c.1460791.0014362.2814694.0764755.3532025.195916.9946438 1.6538561 2.2568616 3.1117963 3.7514995 4.3332491.1100937.0898796.165675.2376842.1450102.3856085l-.3267182 2.3408186-1.53478 3.2089764c-1.0748091.3833347-1.9496206 1.2147507-2.3873826 2.2907925-.7679244 1.8875909-.0167457 4.0655252 1.7473665 5.0658096.9824111.5572295 2.114108.6771487 3.1858292.3374972 1.0567571-.3347446 1.9386944-1.1033287 2.4195676-2.1086396.4745787-.9922659.5280222-2.1112727.161637-3.13286l1.5202908-3.1784581 1.4724291-1.5657717c.1979787-.2106366.490018-.3015933.7815822-.2434289 1.0522441.2097988 2.1328727.3163139 3.2222897.3163139h.0007126c.3018966 0 .5737461.1482834.726951.3968585l1.1125759 1.8033363.61852 2.4734239c-1.0299166 1.2666917-1.3544971 2.9653082-.8417953 4.5516649.6460731 1.9990129 2.5411813 3.3193212 4.5675231 3.3193212.3372882 0 .6784956-.036622 1.0179215-.1127384 1.2738566-.2859153 2.3521099-1.0589275 3.0359498-2.1768572.6840774-1.1182887.8853814-2.4356051.5668579-3.7091186-.3744611-1.4976739-1.4441634-2.7191267-2.8490162-3.292513l-.6127006-2.450565.145604-2.3428532c.0108075-.1741342.1086686-.3312739.2552227-.4100232 1.3251624-.7122149 2.5500885-1.6043087 3.6409307-2.6515076.1148443-.1102252.2665052-.1627646.4161471-.1445733l1.0043824.1230309 1.4479639.9789814c.2571228 1.0524648.9180414 1.9547313 1.8569851 2.5162693 1.7523546 1.0477973 4.0068409.6084525 5.2442372-1.0223055.6841962-.9015485.9603212-2.0125367.7775443-3.1284318-.1801642-1.1003368-.8104417-2.0876957-1.7291957-2.7088342-.9499888-.6422022-2.1243217-.8417086-3.2225272-.5647694l-1.2132873-.8202858-.5226779-.9418806c-.0621133-.1120204-.0701892-.2483357-.0222087-.3739996.4491633-1.175376.7647177-2.404608.9378748-3.6534674.0211399-.1525919.1110439-.2812477.2402585-.3440797l1.6134013-.7843818 1.583948-.1409829c1.1009371 1.8362482 3.0654031 2.864059 5.1637156 2.6518666.3872876-.0391354.7726749-.1217145 1.1457109-.2453438.4673341-.1549854.7213691-.6623084.5675705-1.1332487-.1537987-.4712993-.6573557-.7271749-1.124571-.5723091z"/><path d="m29.5 17c-6.8924555 0-12.5 5.6074255-12.5 12.5s5.6074255 12.5 12.5 12.5 12.5-5.6074255 12.5-12.5c0-4.3095404-2.1769095-8.2602103-5.8231048-10.568408-.4167183-.2637668-.9682956-.1397393-1.2318244.2767409-.2637668.4165993-.1397393.9680576.2768599 1.2318244 3.1262796 1.9789653 4.9926441 5.365917 4.9926441 9.0598427 0 5.907972-4.8064837 10.7145748-10.7145748 10.7145748s-10.7145748-4.8064837-10.7145748-10.7145748 4.8064837-10.7145748 10.7145748-10.7145748c.8299847 0 1.6575888.0955798 2.4599589.2840017.4800413.1130769.9604397-.1849701 1.0731595-.6648924.1127199-.4800413-.185089-.9604397-.6650113-1.0732786-.9359199-.2198454-1.9008827-.3312559-2.8681071-.3312559z"/><path d="m10 9c2.2056647 0 4-1.79433529 4-4s-1.7943353-4-4-4c-2.20566471 0-4 1.7944487-4 4.00011341 0 2.2055513 1.79433529 3.99988659 4 3.99988659zm0-6.29877236c1.2675569 0 2.2988858 1.03132885 2.2988858 2.29888577 0 1.26755691-1.0313289 2.29888577-2.2988858 2.29888577-1.26755692 0-2.29888577-1.03132886-2.29888577-2.29888577 0-1.26755692 1.03132885-2.29888577 2.29888577-2.29888577z"/><path d="m9.00005804 46c-1.65418771 0-3.00005804 1.3457543-3.00005804 2.999942s1.34575425 3.000058 3.00005804 3.000058c1.65418766 0 2.99994196-1.3457543 2.99994196-3.000058 0-1.6540717-1.3457543-2.999942-2.99994196-2.999942zm0 4.2587498c-.69406234 0-1.25880782-.5646294-1.25880782-1.2588078 0-.6940624.5646294-1.2586918 1.25880782-1.2586918.69406234 0 1.25869176.5646294 1.25869176 1.2586918 0 .6941784-.56462942 1.2588078-1.25869176 1.2588078z"/><path d="m50 48c-2.2055739 0-4 1.7943102-4 4s1.7943102 4 4 4 4-1.7943102 4-4-1.7944261-4-4-4zm0 6.2616606c-1.2471174 0-2.2617765-1.0145432-2.2617765-2.2617765s1.0145432-2.2617764 2.2617765-2.2617764 2.2617765 1.0145431 2.2617765 2.2617764-1.0146591 2.2617765-2.2617765 2.2617765z"/><path d="m30 27c0-2.2056349-1.7943651-4-4-4s-4 1.7943651-4 4 1.7943651 4 4 4 4-1.7944874 4-4zm-4 2.1645202c-1.1935513 0-2.1645202-.9709689-2.1645202-2.1645202s.9709689-2.1645202 2.1645202-2.1645202 2.1645202.9709689 2.1645202 2.1645202-.9709689 2.1645202-2.1645202 2.1645202z"/><path d="m28 39c1.6541692 0 3-1.3458308 3-3s-1.3458308-3-3-3-3 1.3458308-3 3c0 1.6542909 1.3457091 3 3 3zm0-4.1739501c.6473524 0 1.1740718.5267194 1.1740718 1.1740718s-.5267194 1.1740718-1.1740718 1.1740718-1.1740718-.5267194-1.1740718-1.1740718.5265977-1.1740718 1.1740718-1.1740718z"/><path d="m32 29.5c0 1.3784993 1.1215007 2.5 2.5 2.5s2.5-1.1215007 2.5-2.5-1.1215007-2.5-2.5-2.5-2.5 1.1213865-2.5 2.5zm2.5-.7875508c.4341919 0 .7874366.3532447.7874366.7874366s-.3532447.7874367-.7874366.7874367-.7874366-.3532448-.7874366-.7874367.3531305-.7874366.7874366-.7874366z"/></g></g></svg>