<?xml version="1.0" standalone="no"?>
<!DOCTYPE svg PUBLIC "-//W3C//DTD SVG 20010904//EN"
 "http://www.w3.org/TR/2001/REC-SVG-20010904/DTD/svg10.dtd">
<svg version="1.0" xmlns="http://www.w3.org/2000/svg"
 width="500.000000pt" height="500.000000pt" viewBox="0 0 500.000000 500.000000"
 preserveAspectRatio="xMidYMid meet">
<metadata>
Created by potrace 1.11, written by Peter Selinger 2001-2013
</metadata>
<g transform="translate(0.000000,500.000000) scale(0.100000,-0.100000)"
fill="#000000" stroke="none">
<path d="M1941 4984 c-133 -36 -247 -130 -305 -254 -40 -86 -48 -213 -18 -306
37 -117 121 -214 237 -272 40 -20 41 -21 58 -109 15 -80 15 -97 2 -172 -8 -46
-16 -85 -17 -86 -2 -1 -41 -22 -87 -46 -46 -24 -123 -75 -173 -112 l-89 -68
-49 9 c-72 13 -164 84 -178 137 -25 94 -117 187 -216 221 -68 23 -195 16 -254
-15 -65 -34 -125 -93 -158 -158 -26 -51 -29 -68 -29 -148 0 -76 4 -99 26 -146
57 -121 164 -191 304 -197 76 -4 83 -6 126 -43 25 -21 54 -56 64 -79 20 -44
21 -37 -30 -178 -48 -135 -66 -236 -72 -417 l-6 -170 -86 -61 c-68 -49 -105
-68 -177 -89 l-91 -27 -54 30 c-104 59 -214 75 -324 47 -75 -19 -99 -45 -92
-98 5 -35 2 -41 -49 -88 -29 -28 -56 -59 -59 -69 -4 -13 -16 -17 -44 -16 -21
0 -46 -5 -55 -13 -24 -20 -46 -106 -46 -180 1 -390 451 -596 731 -334 61 56
95 108 120 178 17 49 18 50 91 77 63 23 89 27 189 27 l115 1 60 -87 c32 -49
108 -139 168 -201 l109 -112 -13 -103 c-11 -91 -19 -117 -77 -242 -61 -132
-67 -141 -106 -159 -122 -58 -204 -222 -178 -360 14 -74 50 -142 103 -193 121
-117 297 -126 438 -21 47 35 99 120 117 193 14 56 14 76 4 131 l-12 64 63 134
c54 115 73 145 136 211 l72 78 48 -7 c26 -4 101 -13 168 -19 72 -7 128 -18
137 -26 43 -35 107 -163 132 -263 l26 -101 -36 -71 c-19 -39 -40 -99 -46 -133
-40 -227 136 -453 365 -470 169 -13 313 74 389 235 30 62 32 75 32 172 0 94
-3 111 -28 164 -38 82 -87 139 -156 181 l-59 37 -25 101 c-21 84 -25 118 -21
192 7 128 8 131 62 161 60 35 220 154 251 188 20 21 33 26 75 26 44 0 61 -6
117 -44 52 -35 68 -52 77 -82 28 -90 119 -176 221 -210 166 -54 359 52 412
227 39 130 4 264 -93 355 -72 68 -125 88 -231 89 -84 1 -90 2 -134 35 -26 20
-57 55 -70 81 l-23 45 25 74 c14 40 32 107 40 149 8 42 17 86 20 98 9 39 134
95 223 101 47 3 72 1 72 -6 0 -6 25 -37 55 -70 93 -100 213 -149 349 -140 97
6 148 31 160 78 7 27 22 43 67 73 32 21 71 56 86 77 24 33 34 40 64 40 66 0
107 80 116 230 9 147 -38 277 -138 381 -138 143 -347 179 -526 89 -68 -34
-161 -124 -195 -186 -25 -48 -37 -53 -133 -56 -81 -2 -202 35 -215 65 -5 12
-23 57 -41 100 -17 42 -56 118 -86 168 l-55 91 26 72 c22 59 40 85 109 158 78
83 85 88 146 103 78 19 116 41 171 101 66 72 85 123 85 229 0 108 -20 159 -91
235 -69 74 -139 105 -239 105 -67 0 -90 -5 -142 -29 -108 -49 -184 -155 -199
-275 -6 -52 -12 -62 -83 -139 -58 -64 -92 -92 -145 -119 l-69 -35 -106 50
c-166 79 -302 115 -516 139 l-70 8 -42 70 c-30 49 -47 93 -59 148 l-16 78 44
47 c226 241 106 633 -221 724 -78 21 -175 22 -250 2z m741 -1623 c164 -43 270
-99 380 -200 121 -112 215 -270 259 -436 31 -116 31 -317 1 -438 -80 -321
-316 -569 -629 -659 -67 -20 -102 -23 -238 -23 -140 0 -169 3 -235 23 -312 99
-529 325 -622 649 -32 113 -32 333 0 446 49 170 118 293 231 410 130 135 295
218 496 251 69 11 281 -3 357 -23z"/>
<path d="M2053 3032 c-146 -58 -234 -198 -220 -349 8 -82 35 -140 93 -203 69
-74 139 -105 239 -105 133 0 232 59 296 177 32 59 34 69 34 158 0 84 -3 102
-28 152 -35 71 -110 140 -183 167 -68 26 -171 27 -231 3z"/>
<path d="M2790 2694 c-165 -72 -164 -319 2 -389 72 -30 171 -13 226 38 109
101 76 295 -60 352 -47 19 -122 19 -168 -1z"/>
<path d="M2278 2200 c-111 -28 -198 -138 -198 -251 0 -88 65 -192 145 -232
161 -80 358 48 358 232 0 161 -154 288 -305 251z"/>
<path d="M777 4909 c-258 -42 -368 -370 -188 -562 65 -69 128 -99 223 -105
168 -10 301 89 343 256 39 153 -36 313 -179 381 -68 33 -128 42 -199 30z"/>
<path d="M642 1074 c-189 -94 -187 -357 3 -457 55 -29 155 -29 210 0 84 44
144 138 145 224 1 191 -192 316 -358 233z"/>
<path d="M4042 909 c-84 -33 -149 -104 -200 -221 -49 -112 -56 -192 -23 -264
47 -103 123 -151 263 -164 153 -15 241 13 323 101 69 74 90 126 90 229 0 76
-3 92 -33 152 -78 159 -256 229 -420 167z m234 -164 c65 -49 93 -149 62 -222
-11 -27 -12 -25 -18 32 -10 90 -60 169 -135 214 -17 11 -15 12 18 7 22 -3 54
-17 73 -31z"/>
</g>
</svg>
